# AST/ASF file generated using VICON BodyLanguage
# -----------------------------------------------
:version 1.10
:name VICON
:units
  mass 1.0
  length 0.45
  angle deg
:documentation
   .ast/.asf automatically generated from VICON data using
   VICON BodyBuilder and BodyLanguage model FoxedUp or BRILLIANT.MOD
:root
   order TX TY TZ RX RY RZ
   axis XYZ
   position 0 0 0  
   orientation 0 0 0 
:bonedata
  begin
     id 1 
     name lhipjoint
     direction 0.621036 -0.695554 0.361275 
     length 2.46325 
     axis 0 0 0  XYZ
  end
  begin
     id 2 
     name lfemur
     direction 0.34202 -0.939693 0  
     length 6.54784  
     axis 0 0 20  XYZ
    dof rx ry rz
    limits (-160.0 20.0)
           (-70.0 70.0)
           (-60.0 70.0)
  end
  begin
     id 3 
     name ltibia
     direction 0.34202 -0.939693 0   
     length 7.84737   
     axis 0 0 20   XYZ
    dof rx
    limits (-10.0 170.0)
  end
  begin
     id 4 
     name lfoot
     direction 0.0790693 -0.217241 0.97291   
     length 2.59747   
     axis -90 7.62852e-016 20   XYZ
    dof rx rz
    limits (-45.0 90.0)
           (-70.0 20.0)
  end
  begin
     id 5 
     name ltoes
     direction 1.53572e-011 -4.21898e-011 1   
     length 1.29919   
     axis -90 7.62852e-016 20   XYZ
    dof rx
    limits (-90.0 20.0)
  end
  begin
     id 6 
     name rhipjoint
     direction -0.602353 -0.708375 0.367935   
     length 2.41867  
     axis 0 0 0  XYZ 
  end
  begin
     id 7 
     name rfemur
     direction -0.34202 -0.939693 0   
     length 6.92065   
     axis 0 0 -20   XYZ
    dof rx ry rz
    limits (-160.0 20.0)
           (-70.0 70.0)
           (-70.0 60.0)
  end
  begin
     id 8 
     name rtibia
     direction -0.34202 -0.939693 0   
     length 7.88883   
     axis 0 0 -20   XYZ
    dof rx
    limits (-10.0 170.0)
 end
 begin
     id 9 
     name rfoot
     direction -0.0768692 -0.211196 0.974416   
     length 2.43714  
     axis -90 -7.62852e-016 -20   XYZ
    dof rx rz
    limits (-45.0 90.0)
           (-20.0 70.0)
  end
  begin
     id 10 
     name rtoes
     direction -1.53575e-011 -4.21933e-011 1   
     length 1.22113   
     axis -90 -7.62852e-016 -20   XYZ
    dof rx
    limits (-90.0 20.0)
  end
  begin
     id 11 
     name lowerback
     direction 0.0197937 0.98943 -0.143655   
     length 2.16931   
     axis 0 0 0   XYZ
    dof rx ry rz
    limits (-20.0 45.0)
           (-30.0 30.0)
           (-30.0 30.0)
  end
  begin
     id 12 
     name upperback
     direction -0.00183968 0.999975 0.00684288   
     length 2.17221   
     axis 0 0 0   XYZ
    dof rx ry rz
    limits (-20.0 45.0)
           (-30.0 30.0)
           (-30.0 30.0)
  end
  begin
     id 13 
     name thorax
     direction -0.00950244 0.997208 0.0740685   
     length 2.22549   
     axis 0 0 0   XYZ
    dof rx ry rz
    limits (-20.0 45.0)
           (-30.0 30.0)
           (-30.0 30.0)
  end
  begin
     id 14 
     name lowerneck
     direction 0.0218238 0.996215 0.0841425   
     length 1.77269   
     axis 0 0 0   XYZ
    dof rx ry rz
    limits (-20.0 45.0)
           (-30.0 30.0)
           (-30.0 30.0)
  end
  begin
     id 15 
     name upperneck
     direction -0.00430652 0.994214 -0.107332   
     length 1.76534   
     axis 0 0 0   XYZ
    dof rx ry rz
    limits (-20.0 45.0)
           (-30.0 30.0)
           (-30.0 30.0)
  end
  begin
     id 16
     name head
     direction -0.00328946 0.998959 -0.0454998  
     length 1.82634  
     axis 0 0 0   XYZ
    dof rx ry rz
    limits (-20.0 45.0)
           (-30.0 30.0)
           (-30.0 30.0)
  end
  begin
     id 17 
     name lclavicle
     direction 0.970962 0.239191 0.00450212  
     length 3.84872  
     axis 0 0 0   XYZ
    dof ry rz
    limits (-20.0 10.0)
           (0.0 20.0)
  end
  begin
     id 18 
     name lhumerus
     direction 1 -4.48966e-011 5.74696e-028   
     length 5.22771   
     axis 180 -30 -90   XYZ
    dof rx ry rz
    limits (-60.0 90.0)
           (-90.0 90.0)
           (-90.0 90.0)
  end
  begin
     id 19
     name lradius
     direction 1 -4.4896e-011 4.25109e-027   
     length 3.45251   
     axis 180 -30 -90   XYZ
    dof rx
    limits (-10.0 170.0)
  end
  begin
     id 20
     name lwrist
     direction 1 -4.48971e-011 1.15382e-027   
     length 1.72626   
     axis -5.52449e-016 90 90   XYZ
    dof ry
    limits (-180.0 0.0)
 end
  begin
     id 21 
     name lhand
     direction 1 -4.49034e-011 2.30765e-027   
     length 0.552119   
     axis -1.47248e-015 90 90   XYZ
    dof rx rz
    limits (-90.0 90.0)
           (-45.0 45.0)
  end
  begin
     id 22 
     name lfingers
     direction 1 -4.48951e-011 4.61529e-027   
     length 0.445133   
     axis -2.94495e-015 90 90   XYZ
    dof rx
    limits (0.0 90.0)
  end
  begin
     id 23
     name lthumb
     direction 0.707107 -6.34991e-011 0.707107   
     length 0.639124   
     axis -90 45 2.85299e-015   XYZ
    dof rx rz
    limits (-45.0 45.0)
           (-45.0 45.0)
  end
  begin
     id 24 
     name rclavicle
     direction -0.97424 0.222511 -0.0366699   
     length 3.73439  
     axis 0 0 0   XYZ 
    dof ry rz
    limits (-10.0 20.0)
           (-20.0 0.0)
  end
  begin
     id 25 
     name rhumerus
     direction -1 -4.48956e-011 -4.97258e-028  
     length 5.2398   
     axis 180 30 90   XYZ
    dof rx ry rz
    limits (-90.0 60.0)
           (-90.0 90.0)
           (-90.0 90.0)
  end
  begin
     id 26 
     name rradius
     direction -1 -4.4897e-011 -1.72611e-027   
     length 3.48042   
     axis 180 30 90   XYZ
    dof rx
    limits (-10.0 170.0)
  end
  begin
     id 27 
     name rwrist
     direction -1 -4.48976e-011 1.15382e-027   
     length 1.74021   
     axis -5.52449e-016 -90 -90   XYZ
    dof ry
    limits (-180.0 0.0)
  end
  begin
     id 28
     name rhand
     direction -1 -4.48963e-011 2.30765e-027   
     length 0.618713   
     axis -1.47248e-015 -90 -90   XYZ
    dof rx rz
    limits (-90.0 90.0)
           (-45.0 45.0)
  end
  begin
     id 29
     name rfingers
     direction -1 -4.4888e-011 4.61529e-027   
     length 0.498823   
     axis -2.94495e-015 -90 -90   XYZ
    dof rx
    limits (0.0 90.0)
  end
  begin
     id 30
     name rthumb
     direction -0.707107 -6.34968e-011 0.707107   
     length 0.716213   
     axis -90 -45 -2.85299e-015   XYZ
    dof rx rz
    limits (-45.0 45.0)
           (-45.0 45.0)
  end
:hierarchy
  begin
    root lhipjoint rhipjoint lowerback
    lhipjoint lfemur
    lfemur ltibia
    ltibia lfoot
    lfoot ltoes
    rhipjoint rfemur
    rfemur rtibia
    rtibia rfoot
    rfoot rtoes
    lowerback upperback
    upperback thorax
    thorax lowerneck lclavicle rclavicle
    lowerneck upperneck
    upperneck head
    lclavicle lhumerus
    lhumerus lradius
    lradius lwrist
    lwrist lhand lthumb
    lhand lfingers
    rclavicle rhumerus
    rhumerus rradius
    rradius rwrist
    rwrist rhand rthumb
    rhand rfingers
  end

#!OML:ASF G:\JayActor3\Patient Classification 1\Patient 1\Session 5\male.ASF
:FULLY-SPECIFIED
:DEGREES
119
root -34.1511 15.6552 -5.73256 23.0532 -86.9483 -3.72587
lowerback 30.9875 -1.28584 2.78274
upperback 9.2543 -1.66544 -0.106054
thorax -6.56194 -1.1307 -1.09987
lowerneck 3.28002 0.814128 3.10361
upperneck -27.9622 0.662865 0.0572039
head -9.29349 -0.468662 -0.500189
rclavicle 3.3694e-014 1.38155e-014
rhumerus -23.5923 5.2861 -89.3166
rradius 52.2414
rwrist -8.43768
rhand -19.7908 -10.9218
rfingers 7.12502
rthumb 6.54182 -40.8007
lclavicle 3.3694e-014 1.38155e-014
lhumerus -24.2437 -7.2364 85.4014
lradius 48.1829
lwrist 28.0596
lhand -20.3624 13.5831
lfingers 7.12502
lthumb 5.98993 43.4784
rfemur -59.2435 -2.25607 23.1975
rtibia 66.5572
rfoot -27.135 -10.1692
rtoes -2.88434
lfemur -56.1904 3.74746 -20.4105
ltibia 58.937
lfoot -20.9138 2.93413
ltoes -5.89254
120
root -34.1638 15.6662 -5.73102 22.8814 -86.9422 -3.60672
lowerback 30.9846 -1.28224 2.7714
upperback 9.25726 -1.66527 -0.113094
thorax -6.55727 -1.13063 -1.10136
lowerneck 3.27742 0.809652 3.11757
upperneck -27.9347 0.653611 0.0341688
head -9.28309 -0.470589 -0.509916
rclavicle 4.57205e-015 1.45113e-014
rhumerus -23.6297 5.22335 -89.3422
rradius 52.1438
rwrist -8.36821
rhand -19.7591 -10.9223
rfingers 7.12502
rthumb 6.57241 -40.8003
lclavicle 4.57205e-015 1.45113e-014
lhumerus -24.3018 -7.20462 85.369
lradius 48.1604
lwrist 28.0674
lhand -20.3745 13.5569
lfingers 7.12502
lthumb 5.97821 43.4526
rfemur -59.0947 -2.21696 23.1302
rtibia 66.5152
rfoot -27.0655 -10.0195
rtoes -3.08448
lfemur -56.0581 3.77319 -20.3912
ltibia 58.8801
lfoot -20.712 2.76188
ltoes -6.00492
121
root -34.1768 15.6774 -5.7295 22.5952 -86.9339 -3.3798
lowerback 30.98 -1.28074 2.7618
upperback 9.26258 -1.66772 -0.122652
thorax -6.54936 -1.13179 -1.10583
lowerneck 3.27712 0.803977 3.13906
upperneck -27.9069 0.642112 0.00450906
head -9.273 -0.473608 -0.523045
rclavicle 1.21259e-014 -1.61016e-014
rhumerus -23.6641 5.15826 -89.3663
rradius 52.0429
rwrist -8.29761
rhand -19.7266 -10.919
rfingers 7.12502
rthumb 6.60371 -40.796
lclavicle 1.21259e-014 -1.61016e-014
lhumerus -24.356 -7.17807 85.3343
lradius 48.1326
lwrist 28.0797
lhand -20.3958 13.5322
lfingers 7.12502
lthumb 5.95767 43.4284
rfemur -58.9489 -2.19304 23.0556
rtibia 66.4909
rfoot -26.9508 -9.82354
rtoes -3.28437
lfemur -55.9258 3.80049 -20.3738
ltibia 58.8349
lfoot -20.5021 2.57171
ltoes -6.22211
122
root -34.1897 15.6892 -5.72809 22.1849 -86.9216 -3.02922
lowerback 30.9688 -1.2813 2.75379
upperback 9.26938 -1.67261 -0.13422
thorax -6.53689 -1.13401 -1.11276
lowerneck 3.26472 0.797791 3.15992
upperneck -27.8694 0.628547 -0.0282332
head -9.25722 -0.476955 -0.53694
rclavicle 1.98785e-014 2.88238e-015
rhumerus -23.6944 5.09503 -89.3882
rradius 51.9391
rwrist -8.23421
rhand -19.6864 -10.9193
rfingers 7.12502
rthumb 6.64255 -40.7951
lclavicle 1.98785e-014 2.88238e-015
lhumerus -24.4015 -7.15336 85.2978
lradius 48.0979
lwrist 28.0854
lhand -20.4078 13.522
lfingers 7.12502
lthumb 5.94614 43.4185
rfemur -58.8183 -2.18959 22.9745
rtibia 66.49
rfoot -26.7768 -9.58326
rtoes -3.50331
lfemur -55.8028 3.82763 -20.357
ltibia 58.8042
lfoot -20.2764 2.3606
ltoes -6.56725
123
root -34.2025 15.7014 -5.72682 21.6945 -86.9077 -2.59406
lowerback 30.9455 -1.28319 2.74528
upperback 9.27715 -1.67966 -0.147506
thorax -6.5179 -1.13708 -1.12084
lowerneck 3.2399 0.793091 3.17664
upperneck -27.823 0.616922 -0.0576773
head -9.23591 -0.479097 -0.549127
rclavicle -3.27995e-014 -4.85035e-014
rhumerus -23.7171 5.035 -89.4095
rradius 51.8309
rwrist -8.17784
rhand -19.6621 -10.9197
rfingers 7.12502
rthumb 6.66603 -40.7948
lclavicle -3.27995e-014 -4.85035e-014
lhumerus -24.4375 -7.12695 85.2584
lradius 48.0544
lwrist 28.0909
lhand -20.4163 13.5239
lfingers 7.12502
lthumb 5.93786 43.4207
rfemur -58.7151 -2.20137 22.8859
rtibia 66.5204
rfoot -26.5247 -9.30724
rtoes -3.77092
lfemur -55.6986 3.8547 -20.3364
ltibia 58.7944
lfoot -20.0317 2.11354
ltoes -6.99538
124
root -34.2148 15.7141 -5.72569 21.206 -86.8906 -2.16047
lowerback 30.9201 -1.28715 2.73809
upperback 9.28409 -1.68866 -0.159577
thorax -6.49895 -1.14104 -1.12766
lowerneck 3.20106 0.790119 3.18898
upperneck -27.7643 0.606669 -0.0873501
head -9.20762 -0.479792 -0.560741
rclavicle 3.27995e-015 1.19271e-014
rhumerus -23.7357 4.9774 -89.4264
rradius 51.7224
rwrist -8.11381
rhand -19.6262 -10.9316
rfingers 7.12502
rthumb 6.70065 -40.8055
lclavicle 3.27995e-015 1.19271e-014
lhumerus -24.4663 -7.09145 85.2179
lradius 48.0025
lwrist 28.0847
lhand -20.4147 13.5347
lfingers 7.12502
lthumb 5.93942 43.4314
rfemur -58.642 -2.22495 22.791
rtibia 66.5892
rfoot -26.1879 -9.01329
rtoes -4.15103
lfemur -55.6135 3.87876 -20.3013
ltibia 58.8108
lfoot -19.7595 1.82396
ltoes -7.52086
